<svg width="31" height="28" viewBox="0 0 31 28" fill="none" xmlns="http://www.w3.org/2000/svg">
<path d="M26.0784 14.5013L26.5226 14.4433L26.5137 13.9955C26.5086 13.7415 26.5524 13.4944 26.6566 13.2548C27.0509 12.3485 28.1063 11.933 29.0126 12.3273C29.9188 12.7215 30.3344 13.7769 29.9401 14.6832C29.5459 15.5895 28.4905 16.005 27.5842 15.6107C27.512 15.5793 27.4373 15.5335 27.3324 15.4665L26.9881 15.2462L26.7038 15.5399L20.1115 22.3508L3.9451 15.3181L4.43352 5.85206L4.45458 5.44384L4.05869 5.34205C3.9381 5.31105 3.85371 5.28766 3.78149 5.25625C2.87521 4.862 2.45969 3.80661 2.85393 2.90032C3.24764 1.99528 4.3067 1.57988 5.21423 1.97467C6.12052 2.36891 6.53604 3.4243 6.14179 4.33059C6.03876 4.56744 5.88236 4.77201 5.69463 4.9426L5.36579 5.24143L5.62391 5.6031L7.9611 8.87791C8.61854 9.80058 9.91172 10.0029 10.8225 9.32195L17.1024 4.634L17.4405 4.38162L17.2486 4.0059C17.0105 3.53967 16.9704 2.98553 17.1916 2.47694C17.5859 1.57066 18.6413 1.15513 19.5476 1.54938C20.4538 1.94363 20.8694 2.99902 20.4751 3.9053C20.2539 4.41389 19.8211 4.76233 19.3177 4.90597L18.912 5.02173L18.9579 5.44113L19.8096 13.2315C19.9324 14.3624 20.9576 15.1674 22.0838 15.0223L22.0845 15.0222L26.0784 14.5013ZM1.57261 17.329C1.62996 17.1972 1.78747 17.1352 1.91929 17.1925L20.1214 25.1107C20.2532 25.168 20.3152 25.3255 20.2578 25.4574L19.6488 26.8575C19.5914 26.9893 19.4339 27.0513 19.3021 26.994L1.10002 19.0759C0.968194 19.0185 0.906181 18.861 0.963526 18.7292L1.57261 17.329Z" fill="#514538" stroke="#947046"/>
</svg>
